<svg xmlns="http://www.w3.org/2000/svg" xmlns:xlink="http://www.w3.org/1999/xlink" id="Layer_1" x="0" y="0" version="1.1" viewBox="0 0 800 800" xml:space="preserve" style="enable-background:new 0 0 800 800"><style type="text/css">.st0{fill:#1c2238}.st1{fill:url(#SVGID_1_)}.st2{fill:url(#SVGID_2_)}.st3{fill:url(#SVGID_3_)}</style><rect width="800" height="800" class="st0"/><g><linearGradient id="SVGID_1_" x1="53.486" x2="746.514" y1="400" y2="400" gradientUnits="userSpaceOnUse"><stop offset="0" style="stop-color:#bf0c42"/><stop offset=".24" style="stop-color:#bf0b47"/><stop offset=".253" style="stop-color:#bf0b47"/><stop offset="1" style="stop-color:#7c0c24"/></linearGradient><path d="M528.6,258.2c-16.6,23.1-15.2,55.3,10,82.1c170,181.7,203.6,293.1,207.9,300.2c3,4.9-94.2-111.8-284.5-213.2 c-85.3-45.4-189.3-87.8-311.5-114.7c-85.2-18.8-81.9,31.6-81.9,31.6c-11.9-17-23.8-54.6-5.9-78.7c20.3-27.3,117-40,118.9-41.1 c4.4-2.5,16.7-28.3,12.4-26.8c-31.4,10.5-57.7,35.2-57.7,35.2c-10.6-42.1,29.6-51.2,38.6-53.5c235-60,472,34.8,461.8,33.1 C630.8,211.4,562,211.7,528.6,258.2z" class="st1"/><g><linearGradient id="SVGID_2_" x1="118.91" x2="281.331" y1="534.316" y2="534.316" gradientUnits="userSpaceOnUse"><stop offset="0" style="stop-color:#bf0c42"/><stop offset=".24" style="stop-color:#bf0b47"/><stop offset=".253" style="stop-color:#bf0b47"/><stop offset="1" style="stop-color:#7c0c24"/></linearGradient><path d="M118.9,428h162.4v45.7h-96.4v37.1h82.4v42.9h-82.4v86.9h-66V428z" class="st2"/><linearGradient id="SVGID_3_" x1="304.504" x2="472.726" y1="534.316" y2="534.316" gradientUnits="userSpaceOnUse"><stop offset="0" style="stop-color:#bf0c42"/><stop offset=".24" style="stop-color:#bf0b47"/><stop offset=".253" style="stop-color:#bf0b47"/><stop offset="1" style="stop-color:#7c0c24"/></linearGradient><path d="M304.5,428h65.7v160.2h102.5v52.4H304.5V428z" class="st3"/></g></g></svg>